<?xml version="1.0" encoding="utf-8"?>
<!-- Generator: Adobe Illustrator 26.3.1, SVG Export Plug-In . SVG Version: 6.00 Build 0)  -->
<svg version="1.1" id="Ç_xAE_Ç_x2026_Ç_xA8_ÇË05"
	 xmlns="http://www.w3.org/2000/svg" xmlns:xlink="http://www.w3.org/1999/xlink" x="0px" y="0px" viewBox="0 0 1275.6 1417.3"
	 style="enable-background:new 0 0 1275.6 1417.3;" xml:space="preserve">
<style type="text/css">
	.st0{fill:#FFFFFF;}
</style>
<g>
	<path d="M1109.8,819.1c-12.2-57.8-31.2-113.5-52.1-168.5C999.2,497,911.5,360.6,811.5,231.4c-20.6-26.6-45.1-47.7-77.6-58.6
		c-24.8-8.2-50.2-13.9-76-17.5c-9.7-1.4-19.7-3-29.4-2c-16.7,1.6-33.4,4-49.6,7.9c-18.7,4.6-37.2,10.3-55.2,17
		c-27,10.1-44.9,31.7-62.4,53.3c-34.1,42.3-64.4,87.3-94.7,132.3C291,476,231.4,596,190.6,725.1c-13.3,42.2-26.1,84.5-30.1,128.7
		c-2.5,27.8-0.5,55.4,6.3,82.5c10.1,41,37.5,67.2,74.5,84.5c26.9,12.6,56,18.8,85,24.5c50.5,9.9,101.4,17,152.8,20.2
		c6.7,0.4,13.3,1,20.3,1.6c-0.3,1.3-0.5,2-0.7,2.7c-7.3,24.3-15,48.5-21.8,72.9c-5.7,20.5-8.4,41.3-5.5,62.7
		c3.6,26,16.8,44.7,41.7,54c18,6.7,36.4,5.9,54.9,1.8c14-3,25-11.1,35.8-19.7c18.8-15.1,52.2-16.2,71.5,1.1
		c19.5,17.4,43.1,22.5,68.5,21.5c29.5-1.2,50.4-18.9,56.4-47.6c3.8-17.9,3.8-36-0.9-53.6c-8.4-31.7-17.7-63.3-26.8-95.2
		c13.1-0.8,27.3-1,41.3-2.7c39-4.6,78-9.2,116.8-14.9c32.5-4.8,64.7-11.6,95.6-23.2c49-18.3,79.6-51.8,87.1-104.9
		C1118,887.4,1117,853.3,1109.8,819.1z"/>
	<path class="st0" d="M774,1167.5c-5.8-31.9-16.3-62.5-26.6-93.2c-1.4-4.2-3.2-5.6-7.8-5.5c-34.3,0.8-68.5,1.3-103.9,1.9
		c-33.8-0.7-68.7-1.4-103.5-2.2c-3.1-0.1-4.5,0.6-5.4,3.6c-3.5,11.1-7.6,22-11.1,33.1c-7.8,25.2-15.9,50.3-18.3,76.7
		c-1.5,15-0.4,29.9,5.2,44.1c6.4,16.2,19.8,24.6,36.3,23c13.4-1.3,25.5-5.4,36-14.3c22.9-19.6,49.7-23.4,78.5-18.3
		c17.1,3,31.7,11.1,44.8,22c22.6,18.8,66.4,15.5,75.2-26.9C776.3,1196.8,776.6,1182.1,774,1167.5z M733.4,1166.2
		c-13.1,20.7-31.8,32.9-56,36.6c-13.5,2.1-26.6,1.9-38.9-6.3c-12.2,9.8-25.8,8.2-39.2,5.8c-25-4.5-45-17-58.8-38.7
		c-1.5-2.3-3-7.3-1.9-8.1c2.4-2.1,6.4-3.7,9.6-3.5c7.7,0.4,13.7,4,18.1,10.9c8.6,13.4,20.5,22.4,36.6,25.2
		c7.5,1.3,11.6-0.7,13.6-7.9c3.3-12.2,0-23.4-9.1-31.3c-9.5-8.3-20.8-14.6-31.4-21.7c-2.7-1.8-5.8-3.2-8.1-5.4
		c-3.8-3.5-2.9-7,1.8-8.9c6.6-2.6,12.7-0.2,18.4,2.7c17,8.5,33.4,18,45.2,31.6c4.8-4,9.1-8.3,14.2-11.7
		c11.3-7.5,22.8-14.6,34.4-21.5c7.4-4.4,14.8-1.8,21.4,2.4c5.3,3.3,4.7,7.3-0.7,10.6c-11.1,6.9-22.4,13.7-33.2,21.3
		c-7.9,5.5-12.3,13.9-14,23.4c-0.5,3-0.7,6.2-0.3,9.2c1,7.2,2,7.9,9.2,6.6c17.8-2.9,31.2-12.7,41.3-27.4c6.8-9.8,16.1-11.1,25.8-3.7
		C735.3,1159.1,736,1162.1,733.4,1166.2z"/>
	<path d="M733.4,1166.2c-13.1,20.7-31.8,32.9-56,36.6c-13.5,2.1-26.6,1.9-38.9-6.3c-12.2,9.8-25.8,8.2-39.2,5.8
		c-25-4.5-45-17-58.8-38.7c-1.5-2.3-3-7.3-1.9-8.1c2.4-2.1,6.4-3.7,9.6-3.5c7.7,0.4,13.7,4,18.1,10.9c8.6,13.4,20.5,22.4,36.6,25.2
		c7.5,1.3,11.6-0.7,13.6-7.9c3.3-12.2,0-23.4-9.1-31.3c-9.5-8.3-20.8-14.6-31.4-21.7c-2.7-1.8-5.8-3.2-8.1-5.4
		c-3.8-3.5-2.9-7,1.8-8.9c6.6-2.6,12.7-0.2,18.4,2.7c17,8.5,33.4,18,45.2,31.6c4.8-4,9.1-8.3,14.2-11.7
		c11.3-7.5,22.8-14.6,34.4-21.5c7.4-4.4,14.8-1.8,21.4,2.4c5.3,3.3,4.7,7.3-0.7,10.6c-11.1,6.9-22.4,13.7-33.2,21.3
		c-7.9,5.5-12.3,13.9-14,23.4c-0.5,3-0.7,6.2-0.3,9.2c1,7.2,2,7.9,9.2,6.6c17.8-2.9,31.2-12.7,41.3-27.4c6.8-9.8,16.1-11.1,25.8-3.7
		C735.3,1159.1,736,1162.1,733.4,1166.2z"/>
	<path class="st0" d="M1080.9,806.2c-19.6-82-48.5-160.8-83.6-237.4C958,483.1,908.8,403.3,855,326.1c-0.5-0.8-1.2-1.4-2.3-2.7
		c-0.6,2.4-1.2,4.2-1.6,6.1c-17.4,70.4-22.5,142.2-25.1,214.3c-0.4,10.4-1.6,11.9-12.1,12.4c-11.6,0.5-23.2,1-34.9,1
		c-68,0.1-136,0-204,0.3c-41.2,0.2-82.5,1.1-123.8,1.8c-23.2,0.4-37.1-11.1-37.9-34.4c-0.9-28.8-0.9-57.7,0.4-86.5
		c1.6-33.4,9.9-65.8,18.3-98.1c3.5-13.5,7.3-26.9,11-40.2c-0.2-0.1-0.4-0.2-0.7-0.3c-1,1.3-2.2,2.5-3.1,3.9
		c-30,45.4-61.3,90-89.7,136.3c-67.9,110.9-117.9,229.7-151,355.5c-10.9,41.4-15.7,83.1-9.1,126c5.4,35.2,21.3,63.1,52.1,81.8
		c16.3,9.9,34.5,15.5,52.9,20c62.6,15.4,126.2,23.8,190.4,27.7c37.7,2.3,75.5,3.2,113.2,3.6c69.9,0.6,139.8-0.1,209.6-5.6
		c16.9-1.4,33.9-2.8,50.7-5c22-2.9,44-5.8,65.6-10.3c27.3-5.7,54.9-11.2,81.3-20.1c46.6-15.6,74.3-48.1,81.2-97.8
		C1091.7,878.8,1089.5,842.4,1080.9,806.2z M535.2,851.5c-10.2-0.1-17.9-7.8-17.7-17.5c0.2-9.7,8.3-17.7,17.9-17.5
		c9.9,0.2,17.6,8.1,17.3,17.9C552.4,844.1,544.7,851.7,535.2,851.5z M740.5,851.5c-9.7,0-17.4-7.9-17.3-17.9c0-9.4,7.9-17,17.5-17.1
		c9.8-0.1,17.8,8.2,17.6,18.3C758.2,844.3,750.4,851.5,740.5,851.5z"/>
	<g>
		<path d="M758.4,834.9c-0.1,9.4-7.9,16.6-17.9,16.6c-9.7,0-17.4-7.9-17.3-17.9c0-9.4,7.9-17,17.5-17.1
			C750.5,816.5,758.6,824.8,758.4,834.9z"/>
		<path d="M552.7,834.4c-0.3,9.7-8,17.3-17.5,17.1c-10.2-0.1-17.9-7.8-17.7-17.5c0.2-9.7,8.3-17.7,17.9-17.5
			C545.4,816.7,553.1,824.7,552.7,834.4z"/>
	</g>
	<path d="M830.7,297.9c-17.3,63.3-26.5,127.7-29.4,193.2c-0.7,16.4-1.7,32.8-2.8,51c-36,0-71.4,0-106.8,0
		c-71.1,0-142.2,0.1-213.3,0.2c-9.6,0-19.3,0.3-29,1c-5,0.4-7.2-1.6-7.8-6.2c-0.7-6-1.5-11.9-1.9-17.9
		c-4.6-71.8,8.3-141.2,29.5-209.4c7.8-25.2,15.6-50.3,23.4-75.4c0.4-1.4,1.5-2.7,2.4-3.9c18.7-24.4,42.9-40.9,72.7-48.1
		c24.1-5.8,48.7-10.6,73.3-13.8c10.6-1.4,21.8,2.1,32.7,4c20.8,3.5,41.1,8.7,60.7,16.8c21.1,8.6,36.2,24.2,49.9,41.4
		c15.4,19.2,30.1,38.9,44.8,58.6C830.7,291.6,831.3,295.4,830.7,297.9z"/>
</g>
</svg>
