<?xml version="1.0" encoding="utf-8"?>
<!-- Generator: Adobe Illustrator 26.3.1, SVG Export Plug-In . SVG Version: 6.00 Build 0)  -->
<svg version="1.1" id="Layer_1" xmlns="http://www.w3.org/2000/svg" xmlns:xlink="http://www.w3.org/1999/xlink" x="0px" y="0px"
	 viewBox="0 0 654 298" style="enable-background:new 0 0 654 298;" xml:space="preserve">
<style type="text/css">
	.st0{fill:url(#SVGID_1_);}
	.st1{fill:url(#SVGID_00000121996909319110312640000007241097014573327532_);}
	.st2{fill:url(#SVGID_00000088817478492706732230000000756542975105704127_);}
	.st3{fill:url(#SVGID_00000178201117004425483140000002263316551475261598_);}
	.st4{fill:url(#SVGID_00000046298184738905148310000011313902832188390799_);}
	.st5{fill:url(#SVGID_00000008859676949046682680000005511112242917101704_);}
	.st6{fill:url(#SVGID_00000154399653891759818890000000746872104772613253_);}
	.st7{fill:#FF9700;}
	.st8{font-family:'Apple-Chancery';}
	.st9{font-size:48px;}
</style>
<g>
	<g>
		
			<radialGradient id="SVGID_1_" cx="330.3418" cy="271.6543" r="360.7464" gradientTransform="matrix(1 0 0 -1 0 434)" gradientUnits="userSpaceOnUse">
			<stop  offset="0" style="stop-color:#FFFFFF"/>
			<stop  offset="8.510865e-02" style="stop-color:#FFEDD8"/>
			<stop  offset="0.2082" style="stop-color:#FFD5A7"/>
			<stop  offset="0.3345" style="stop-color:#FFC17D"/>
			<stop  offset="0.462" style="stop-color:#FFB05B"/>
			<stop  offset="0.591" style="stop-color:#FFA340"/>
			<stop  offset="0.7222" style="stop-color:#FF9A2D"/>
			<stop  offset="0.8568" style="stop-color:#FF9522"/>
			<stop  offset="1" style="stop-color:#FF931E"/>
		</radialGradient>
		<path class="st0" d="M24.4,205.4L38,190.9c3.3,1.3,7.9,2.4,13.9,3.4c4.8-2.9,8.1-6.7,9.9-11.2s3.4-13.4,4.9-26.7l8.1-72.8
			c-29.4,3.5-44.2,14.1-44.2,32c0,5.3,1.4,10.9,4.3,16.7L19,147.2c-1.4-3.2-2.1-7.9-2.1-14.2c0-19.5,7.6-34.5,22.8-44.8
			c15.2-10.3,37.1-15.5,65.8-15.5c47.3,0,70.9,16.4,70.9,49.3c0,19.7-6.6,37.8-19.9,54.4c-17.6,21.9-44.5,32.9-80.7,32.9
			C60.5,209.4,43.4,208,24.4,205.4z M90.6,81.3l-8.1,73.4l-1,9.2c-1,8.5-2.8,14.8-5.5,18.7c-2.7,3.9-7.9,8.1-15.7,12.7
			c14.3,2,27.6,3,40,3c11.5,0,20.4-1.6,26.7-4.8s12.4-9.3,18.4-18.3c8.4-12.5,12.6-26.6,12.6-42.1c0-34.4-21.4-51.6-64.2-51.6h-3.2
			V81.3z"/>
		
			<radialGradient id="SVGID_00000139991026252301763690000003781263584165151904_" cx="330.3418" cy="271.6543" r="360.7464" gradientTransform="matrix(1 0 0 -1 0 434)" gradientUnits="userSpaceOnUse">
			<stop  offset="0" style="stop-color:#FFFFFF"/>
			<stop  offset="8.510865e-02" style="stop-color:#FFEDD8"/>
			<stop  offset="0.2082" style="stop-color:#FFD5A7"/>
			<stop  offset="0.3345" style="stop-color:#FFC17D"/>
			<stop  offset="0.462" style="stop-color:#FFB05B"/>
			<stop  offset="0.591" style="stop-color:#FFA340"/>
			<stop  offset="0.7222" style="stop-color:#FF9A2D"/>
			<stop  offset="0.8568" style="stop-color:#FF9522"/>
			<stop  offset="1" style="stop-color:#FF931E"/>
		</radialGradient>
		<path style="fill:url(#SVGID_00000139991026252301763690000003781263584165151904_);" d="M243.4,176.9c1.6,1.1,2.4,2.4,2.4,3.9
			c0,2-2.1,5.5-6.2,10.4c-11.1,12.9-22.1,19.3-33,19.3c-6.6,0-12.1-2.6-16.4-7.9s-6.4-12-6.4-20.2c0-14.8,5.6-29.9,16.8-45.1
			s22.3-22.8,33.3-22.8c7.9,0,11.9,4.3,11.9,12.8c0,9.6-4.6,18.9-13.9,28c-9.3,9.1-20.6,15.5-33.9,19c1.3,15.6,7.5,23.4,18.6,23.4
			C227.5,197.8,236.4,190.9,243.4,176.9z M198.4,162.5c1.9,0.7,3.6,1,5.2,1c8.1,0,15.1-2.5,21.2-7.4c6.1-4.9,9.1-10.7,9.1-17.4
			c0-7.6-3.9-11.4-11.6-11.4c-5.6,0-10.7,3.3-15.2,10C202.5,143.9,199.6,152.3,198.4,162.5z"/>
		
			<radialGradient id="SVGID_00000091694880141859060990000011126056232927892111_" cx="330.3418" cy="271.6543" r="360.7464" gradientTransform="matrix(1 0 0 -1 0 434)" gradientUnits="userSpaceOnUse">
			<stop  offset="0" style="stop-color:#FFFFFF"/>
			<stop  offset="8.510865e-02" style="stop-color:#FFEDD8"/>
			<stop  offset="0.2082" style="stop-color:#FFD5A7"/>
			<stop  offset="0.3345" style="stop-color:#FFC17D"/>
			<stop  offset="0.462" style="stop-color:#FFB05B"/>
			<stop  offset="0.591" style="stop-color:#FFA340"/>
			<stop  offset="0.7222" style="stop-color:#FF9A2D"/>
			<stop  offset="0.8568" style="stop-color:#FF9522"/>
			<stop  offset="1" style="stop-color:#FF931E"/>
		</radialGradient>
		<path style="fill:url(#SVGID_00000091694880141859060990000011126056232927892111_);" d="M298,179.3c1.9,0.9,2.8,2.1,2.8,3.5
			c0,4.7-3.5,10.5-10.5,17.4s-12.9,10.4-17.6,10.4c-5.4,0-8.1-3.9-8.1-11.7c0-4.8,0.3-9.6,0.9-14.6l1.1-8.7l7.5-68
			c2.3-20.7,9.5-38,21.3-51.9c11.9-13.9,25.6-20.8,41.1-20.8c3.8,0,7,0.3,9.6,1l-13.8,14.2c-3.1-1-6.6-1.6-10.7-1.6
			c-9.8,0-17.1,3.4-21.9,10.3c-4.8,6.9-8.2,18.5-10,34.9l-9.1,81.8c-0.7,6.3-1.1,10.8-1.1,13.6c0,5.9,1,8.8,3,8.8
			c2.4,0,5.2-1.9,8.5-5.8C294.1,188.2,296.5,184,298,179.3z"/>
		
			<radialGradient id="SVGID_00000015325470083362658380000003273497651305837725_" cx="330.3418" cy="271.6543" r="360.7464" gradientTransform="matrix(1 0 0 -1 0 434)" gradientUnits="userSpaceOnUse">
			<stop  offset="0" style="stop-color:#FFFFFF"/>
			<stop  offset="8.510865e-02" style="stop-color:#FFEDD8"/>
			<stop  offset="0.2082" style="stop-color:#FFD5A7"/>
			<stop  offset="0.3345" style="stop-color:#FFC17D"/>
			<stop  offset="0.462" style="stop-color:#FFB05B"/>
			<stop  offset="0.591" style="stop-color:#FFA340"/>
			<stop  offset="0.7222" style="stop-color:#FF9A2D"/>
			<stop  offset="0.8568" style="stop-color:#FF9522"/>
			<stop  offset="1" style="stop-color:#FF931E"/>
		</radialGradient>
		<path style="fill:url(#SVGID_00000015325470083362658380000003273497651305837725_);" d="M359,179.6c1.7,1,2.6,2.1,2.6,3
			c0,2.3-2.8,7-8.5,13.9c-7.6,9.4-14.7,14.1-21.2,14.1c-4.8,0-7.1-3.2-7.1-9.5c0-2.7,1-10.9,2.9-24.6l3.8-26.5l1-6.7l0.8-5.4
			c0.3-2.3,0.5-4.2,0.5-5.8c0-3.3-0.9-4.9-2.7-4.9c-5.1,0-10.5,5.6-16.3,16.7c-1.2-1.1-1.8-2.2-1.8-3.3c0-4,3.7-9.3,11-16
			s13.2-10.1,17.5-10.1c4.9,0,7.3,3.4,7.3,10.1c0,1.3-0.3,4-0.8,8l-0.9,6.5c-0.1,0.5-0.4,3.2-1.1,7.9l-4,27.9l-1,6.2
			c-0.8,6.2-1.3,10.3-1.3,12.4c0,2.8,0.8,4.2,2.4,4.2C347.6,197.8,353.2,191.8,359,179.6z M339.5,101.9l8.2-20.2
			c7.3-3,13.3-7.1,18-12.4c0.7,0.9,1,1.9,1,2.8C366.6,80.9,357.6,90.8,339.5,101.9z"/>
		
			<radialGradient id="SVGID_00000095329501817322810060000016242343588889156015_" cx="330.3418" cy="271.6543" r="360.7464" gradientTransform="matrix(1 0 0 -1 0 434)" gradientUnits="userSpaceOnUse">
			<stop  offset="0" style="stop-color:#FFFFFF"/>
			<stop  offset="8.510865e-02" style="stop-color:#FFEDD8"/>
			<stop  offset="0.2082" style="stop-color:#FFD5A7"/>
			<stop  offset="0.3345" style="stop-color:#FFC17D"/>
			<stop  offset="0.462" style="stop-color:#FFB05B"/>
			<stop  offset="0.591" style="stop-color:#FFA340"/>
			<stop  offset="0.7222" style="stop-color:#FF9A2D"/>
			<stop  offset="0.8568" style="stop-color:#FF9522"/>
			<stop  offset="1" style="stop-color:#FF931E"/>
		</radialGradient>
		<path style="fill:url(#SVGID_00000095329501817322810060000016242343588889156015_);" d="M452,118.4c-0.3,1.2-0.5,1.9-0.6,2.1
			l-1.1,5.2c-0.8,3.8-1.3,5.9-1.4,6.2l-3.9,35.7c-0.7,6-1.3,16.5-2.1,31.5c-0.9,18.8-2.7,32.7-5.4,41.8c-2.7,9-7.4,17.1-14.2,24.2
			c-15.5,16.3-32,24.5-49.5,24.5c-8.5,0-15.5-2.9-21.1-8.6s-8.4-12.9-8.4-21.5c0-17.5,10.7-34.8,32.1-51.8c-4.6-3.6-6.8-9.9-6.8-19
			c0-19.7,6.5-36.8,19.4-51.3c13-14.5,28.3-21.8,45.9-21.8C442.6,115.8,448.2,116.7,452,118.4z M430.9,169.7
			c-17.6,26.9-33.5,40.3-47.7,40.3c-0.6,0-1.6-0.1-3.1-0.2c-15.2,15.2-22.8,28.8-22.8,40.7c0,8.1,2.9,14.9,8.7,20.4
			s12.9,8.2,21.5,8.2c13.2,0,23.3-5.8,30.3-17.4c5.3-8.9,9.1-30.2,11.1-63.7C429.6,185.3,430.3,175.9,430.9,169.7z M435.2,130.6
			c-4.7-3.3-10.6-5-17.7-5c-8.9,0-16.5,5.6-22.6,16.8c-6.2,11.2-9.2,25-9.2,41.3c0,8.5,2.5,12.7,7.5,12.7c5.7,0,12.7-4.4,21-13.3
			c11.5-12.3,18-26.2,19.7-41.8L435.2,130.6z"/>
		
			<radialGradient id="SVGID_00000140726230966385770420000016289368677546820270_" cx="330.3418" cy="271.6543" r="360.7464" gradientTransform="matrix(1 0 0 -1 0 434)" gradientUnits="userSpaceOnUse">
			<stop  offset="0" style="stop-color:#FFFFFF"/>
			<stop  offset="8.510865e-02" style="stop-color:#FFEDD8"/>
			<stop  offset="0.2082" style="stop-color:#FFD5A7"/>
			<stop  offset="0.3345" style="stop-color:#FFC17D"/>
			<stop  offset="0.462" style="stop-color:#FFB05B"/>
			<stop  offset="0.591" style="stop-color:#FFA340"/>
			<stop  offset="0.7222" style="stop-color:#FF9A2D"/>
			<stop  offset="0.8568" style="stop-color:#FF9522"/>
			<stop  offset="1" style="stop-color:#FF931E"/>
		</radialGradient>
		<path style="fill:url(#SVGID_00000140726230966385770420000016289368677546820270_);" d="M489.6,154.1c7.6-11.5,16-20.9,25.1-28.4
			s17-11.2,23.5-11.2c6.3,0,9.5,4.4,9.5,13.2c0,2.6-0.4,6.6-1.1,12l-5.2,36.4c-1.1,7.3-1.6,13-1.6,17.3c0,3.4,0.9,5.1,2.7,5.1
			c4.5,0,10-6,16.5-17.9c1.6,1,2.4,2,2.4,3c0,4.2-3.6,9.8-10.9,16.7c-7.3,6.9-13.2,10.3-17.7,10.3c-5.1,0-7.6-3.6-7.6-10.9
			c0-5.3,0.7-12.7,2.1-22.2l3.4-23.6c1.1-7.7,1.7-13.9,1.7-18.5c0-5-1.8-7.5-5.4-7.5c-8.3,0-16.7,5.6-25.2,16.9s-13.5,23.4-15,36.4
			l-2.6,23.4l-14.6,6l0.3-2.7l0.8-7.2l0.8-6.8l9.5-85.6c2.3-20.2,9.8-37.4,22.5-51.7s26.9-21.4,42.6-21.4c3.3,0,6.4,0.4,9.5,1.1
			l-14.3,14.1c-3.7-1.1-7.2-1.7-10.5-1.7c-19.3,0-30.7,15.1-34.1,45.4L489.6,154.1z"/>
		
			<radialGradient id="SVGID_00000033331092295092977110000008980061371203537300_" cx="330.3418" cy="271.6543" r="360.7464" gradientTransform="matrix(1 0 0 -1 0 434)" gradientUnits="userSpaceOnUse">
			<stop  offset="0" style="stop-color:#FFFFFF"/>
			<stop  offset="8.510865e-02" style="stop-color:#FFEDD8"/>
			<stop  offset="0.2082" style="stop-color:#FFD5A7"/>
			<stop  offset="0.3345" style="stop-color:#FFC17D"/>
			<stop  offset="0.462" style="stop-color:#FFB05B"/>
			<stop  offset="0.591" style="stop-color:#FFA340"/>
			<stop  offset="0.7222" style="stop-color:#FF9A2D"/>
			<stop  offset="0.8568" style="stop-color:#FF9522"/>
			<stop  offset="1" style="stop-color:#FF931E"/>
		</radialGradient>
		<path style="fill:url(#SVGID_00000033331092295092977110000008980061371203537300_);" d="M601.1,128.4l-4.7,43.2
			c-0.8,7.7-1.3,13.5-1.3,17.2c0,7.4,2.5,11,7.5,11c5.4,0,11-4.4,16.7-13.3c1,1.2,1.5,2.3,1.5,3.3c0,3.6-3.2,8-9.6,13.1
			c-6.4,5.1-11.9,7.6-16.6,7.6c-9.2,0-13.9-5.9-13.9-17.8c0-4.4,0.6-11.4,1.7-21.2l4.7-43.2h-20.5L578,117h10.4l2.1-17.8l14.4-4.8
			l-2.4,22.6h41.4l-11.4,11.3L601.1,128.4L601.1,128.4z"/>
	</g>
</g>
<text transform="matrix(1 0 0 1 60.3002 48.8013)" class="st7 st8 st9">Juice bar</text>
</svg>
