<svg xmlns="http://www.w3.org/2000/svg" viewBox="0 0 1371 8448"><defs><style>.cls-1{fill:none;stroke:#999;stroke-miterlimit:10;stroke-width:0.15px;}</style></defs><g id="レイヤー_4" data-name="レイヤー 4"><path class="cls-1" d="M-18.19,222.64s20-8.37,31-7.28c8.71.86,34.26-2.09,49.14-5.34a52.76,52.76,0,0,0,9.25-2.66c8.35-3.76,28.79-15.57,55.49-13.62a13.28,13.28,0,0,1,4.26,1.49c.74.32,6.31-1,30.79-10C201,170.64,437.1,148.82,436.36,157.55c-.69,8.25-35.39,14.87-39.2,15.57l-.66.1L157.25,198.57a8.43,8.43,0,0,1-1.23,0c-4.06-.16-28.26-.8-44.13,5.85-17.37,7.27-38.06,6.9-38.06,6.9s-37.33,1.1-56.17,14.55-36.59,10.91-36.59,10.91"/><path class="cls-1" d="M-18.2,179.09s75.34-.53,91-4.24,444.86-79,536.93-43.87a7.25,7.25,0,0,0,.9.29c5.16,1.31,52.93,15.31-134.81,42-197.46,28.07-341.72,34.54-369.15,49.12-25.71,13.66-72.15,13.09-77.85,13a9.49,9.49,0,0,0-1.19.06c-5.27.62-43.25,5.33-46.17,12.51"/><path class="cls-1" d="M-18.68,155.28s647.47-70.79,748.52-41.76a8.27,8.27,0,0,1,2.38,14.86c-16.27,11-61.85,29.72-189.16,45.77,0,0-155.82,24.37-192.57,27.52s-214.95,25.16-230.93,31.44S49.24,252,36.45,252s-56.73,15.73-56.73,15.73"/><path class="cls-1" d="M-18.67,102s742.51-75.4,945.75-19a8.21,8.21,0,0,1,3.56,2c5.14,5,15.32,21.37-45.52,40.3C812,148.08,357,227.54,337.64,230.48S49.6,264.25-19.79,339.14"/><path class="cls-1" d="M-19.16,59S771.58,4.21,805.74,4.21,974,.47,1025.88,10.43c17.19,3.3,33.57,3.9,48.46,3.7,13-.18,15.58,18.06,3,21.34-15.76,4.11-31.52,8.18-43.34,11.17-25.85,6.52-43,43.31-50.53,63a38.17,38.17,0,0,1-17.68,20.06c-28.12,15.09-97.78,48.35-183.06,59C671.11,202.73,428.28,250,403.25,256S163.8,287.91,169.89,377.76s91.44,96.59,103.49,116.47c4.51,7.43,4.74,49.92-58.17,62.56S-6.93,559.28-17.92,562"/><path class="cls-1" d="M1267.24-7.29S1244,22.52,1172.77,32.66s-141.56,18.45-155.62,74.72S845.59,186.7,845.59,186.7s-312.17,54.43-333.73,60.88-333.74,39.67-269,140.21,377.94,122.13,414.35,131c22,5.34,215.12,14.09,219.32,48.62,1.67,13.77-176.66,12.51-205.42,14.08-18.4,1-40.46,5.95-57.23,7C499.83,595.9,30,617-25.94,626.72"/><path class="cls-1" d="M1366.87,14.66S1093.72,67.3,1069.13,84.3c-25.79,17.84-62.59,80.77-134.06,92.49S335.52,270.55,295.82,337s119.11,100.6,139,105.49S868.57,495.19,895.37,503s284.88,34.18,306.72,43,161.8,12.7,161.8,12.7"/><path class="cls-1" d="M1366,56.57s-229.18-6.26-227.37,35.77-55.06,67.49-69.5,73.41-361.85,74.87-376.28,79.39S404,289.64,400.75,338.71s315.72,57.5,315.72,57.5,290,23.89,317.58,22.6,305.77,4.52,334-9"/><path class="cls-1" d="M1367.75,69.46s-166.84-.54-193.54,28.48a8.2,8.2,0,0,0-1.31,9.28c5.14,10.09,16.77,38.93-10.65,51.43-33.53,15.27-188.13,44-190,44S571.85,258.06,543.18,307.51a8.26,8.26,0,0,0-1,5.62c1.68,9.21,15.79,37.52,123.39,53.22,129.76,18.94,409.78,18.33,452,18.33s250.21-10.39,250.21-10.39"/><path class="cls-1" d="M1366.34,78.18s-187.76,0-138,48.92-108.35,65-108.35,65-382.94,58.41-410.4,65-126.91,28.47-123.2,48.19,34.88,29.21,54.92,35.78,158.08,32.13,227.09,35.78,499.46-12.41,499.46-12.41"/><path class="cls-1" d="M857.88,283.15a10.34,10.34,0,0,0-1.47,19.7c14.83,6,32.86,12.66,40.21,12.93,13.45.51,36.22-1,50.18.51s65.19,1.53,78.64-6.1,36.73-22.4,10.86-26.47-86.91-10.18-121-8.15C895.39,276.76,874,279.32,857.88,283.15Z"/><path class="cls-1" d="M833.87,337.2a171.2,171.2,0,0,0,32.18.76,127.68,127.68,0,0,1,21.51.27c17.33,1.75,50.37,4.62,72,3.63,30.43-1.39,90.58-4.87,104-2.09s88.45-4.87,91.28-7.66c2.6-2.55,29.59-15.64,28.6-33.36a8.24,8.24,0,0,0-4.38-6.76c-10.49-5.64-42.54-22.55-56.06-26-16.16-4.15-59.56-28.22-101.06-19.67a8.55,8.55,0,0,1-1.68.18c-9.39,0-93.74.19-101.76,3.48C910,253.44,794,272.24,775.56,273.63s-92.69,16.71-58.73,36.9c31.31,18.61,87.28,27.76,106.92,26.35A51.85,51.85,0,0,1,833.87,337.2Z"/><path class="cls-1" d="M942.72,239.82s136.57-12.53,179-4.17,78.55,8.35,102.61,26.45,7.07,25.07,31.84,39.69-2.12,36.9-13.44,39.69-213,12.53-239.18,10.44-153.55-.7-172-3.48S724.07,338,714.16,333.12s-53.78-12.53-57.32-22.28,1.42-25.06,25.48-28.55,133-22.27,148.6-27.15S920.08,241.91,942.72,239.82Z"/><path class="cls-1" d="M-22.53,709.33s196.84-27.26,247.88-45.91c0,0,258-5.12,265.47-9.3,0,0,293.13-10.39,364,6"/><path class="cls-1" d="M-22.42,763.68S162.09,735.51,232.08,700c0,0,29.69-16.69,66.81-17.73S742,683.92,779.71,652.68"/><path class="cls-1" d="M-18.91,806.84s323.25-91.12,333.14-90.24,363.26-.88,409.12-21.23S895.09,652.9,895.09,652.9s64.14-8,112.49-1.66c0,0,305.85,24.46,357.73,7.44"/><path class="cls-1" d="M-25.64,828.83S613.1,735.25,645.52,721.42s249.66-56.36,282.08-56.36,419.34,38.28,439.87,37.22"/><path class="cls-1" d="M183,798s297.21,9.57,392.32-18.08,268.32-86.08,363.39-85.55,87.32,13.32,163.95,13.32,265.85,13.11,265.85,13.11"/><path class="cls-1" d="M320.14,908.28C404.16,874,580.2,805,689.44,782.13A97.48,97.48,0,0,0,710.76,775c26.71-12.48,101.29-45.2,170.8-56.08,86.58-13.55,231.21,6.78,231.21,6.78s224.82,25.16,252.36,86.15c0,0,44,84.2,1.84,122.85s-296.42,122-324.86,124-91.21,7.72-105.92,4.83-250.19-1.45-265.79-6.76c-8.86-3-240.53-94.91-348.34-121.94A14,14,0,0,1,320.14,908.28Z"/><path class="cls-1" d="M499,941.57a24.3,24.3,0,0,1,.65-42.33C583.53,852.8,796.37,742.1,908.24,748.81c134.45,8.07,318.82,8.46,366.88,60.31A112.3,112.3,0,0,0,1293,824.78c30.47,21.39,98,86.88-89.19,156.37,0,0-135.19,54.23-193.07,61.88s-164.32.57-175.68,3.36S735,1061.06,689.52,1043.6C656.58,1030.94,553.51,973.88,499,941.57Z"/><path class="cls-1" d="M633.88,950.42s-43.46-41.74,10.35-72.29,152.1-92.64,174.87-95.7,132.52-22,214.37-5.66,140.67,9.44,174.56,42.78,41.56,103.18-28.78,127.72-92.71,51.58-190.54,66.68-260.24,10.07-279.42,1.26S633.88,950.42,633.88,950.42Z"/><path class="cls-1" d="M745.34,965.36s-80.57-34.56-11.71-88.76,126.71-67.08,151.5-67.08S1080,812.23,1123.4,843.4s15.83,65.72-24.79,80.63S850.7,1006,745.34,965.36Z"/><path class="cls-1" d="M-20.83,907.39s288.43,90.46,400.53,95.42,262,57,294.72,78.07,98.24-1.24,118.39-1.24,141.07-1.24,178.85,5,380.37-84.27,393-92.94,6.63-2.36,6.63-2.36"/><path class="cls-1" d="M-20.16,1052.84s191,19.58,329,57.43c0,0,86.22,3.91,197.65,33.93s191,33.94,241.43,20.89,159.18-1.31,188.36-9.14,412.55-62.65,432.44-52.21"/><path class="cls-1" d="M-22.82,1080.25s191,40.46,265.3,40.46,99.49,0,139.29,10.44,103.47,22.19,139.28,22.19c0,0,21.1.42,26.69,1.7"/><path class="cls-1" d="M-19.38,1122.36s357.37,20.07,424.16,41.5S621.1,1206.71,656,1205.28s225,11.43,304.89-7.14,319.41-77.14,406.52-64.28"/><path class="cls-1" d="M-20.59,1216.86s390.13,2.85,436.37,22.75S571.83,1270.89,594,1268s208-24.15,247-15.31c27.39,20.34,460.55-79.47,526.05-56.72"/><path class="cls-1" d="M-19.78,1271.22s322-4.31,446.89,24.78,294.64-4.31,351.6-1.07,501.65-69,587.09-47.42"/><path class="cls-1" d="M-21.66,1354.35S40.56,1321.7,183,1332.59s246.13,28.57,329.09,19,272.4-36.73,372-40.81,419-29.94,482.58-12.25"/><path class="cls-1" d="M-20.87,1399.67s162.41-28.2,278.41-9.4,275.69-6.72,346.66-6.72,275.68-44.31,412.16-36.25,318-16.12,350.74-9.4"/><path class="cls-1" d="M-23.6,1468.15s372.58-51,578.66-21.48,356.21,33.57,386.23,33.57,401.25-81.92,428.54-68.49"/><path class="cls-1" d="M-20.87,1500.38s399.88-44.31,603.23,6.71,776.55-45.65,786.11-41.62"/><path class="cls-1" d="M-14,1970.11s195,75.46,191.72,87.31S-14,2142.58-14,2142.58"/><path class="cls-1" d="M-13.54,1821.77s428.23,106.48,623,103.43,718.87,45.64,723.51,108-211.79,111-211.79,111S20.47,2237-13.54,2237"/><path class="cls-1" d="M-16.63,1832.42s409.38,87.81,473.77,87.81,630.91,48.8,682.4,112.4S860.18,2141.5,860.18,2141.5L-14,2215.88"/><path class="cls-1" d="M-14,2169.53s273.88-69,294.7-101.33S-16.24,1942.09-16.24,1942.09"/><path class="cls-1" d="M-16.57,2296.84s604.6-58,677.55-51.07,262.32-22.08,284.77-24.84,423.64-41.41,439.07-59.35"/><path class="cls-1" d="M-19.37,2317.54s540.07-52.45,585-48.31,478.35-38.64,499.39-40,291.78-29,322.64-48.31"/><path class="cls-1" d="M-16.57,2341s340.88-29,378.76-24.85,239.87-20.7,256.71-20.7,484-17.94,538.67-23.46,223-27.61,225.85-31.75"/><path class="cls-1" d="M-16.57,2356.19s238.48-15.18,262.32-22.08,196.39-11.05,196.39-11.05,290.38-20.7,304.41-19.32,441.88-20.7,465.73-26.22,171.14-19.33,171.14-19.33"/><path class="cls-1" d="M-14.66,2384s210.5-7.56,235.08-13.61,216.65-13.6,241.23-15.11,536.24-30.24,577.72-25.7,348.79-28.73,348.79-28.73"/><path class="cls-1" d="M-16.2,2397.64s224.33-10.59,250.45-13.61S434,2362.86,469.33,2367.4s633-30.24,633-30.24l282.71-19.65"/><path class="cls-1" d="M-13.29,2426s554.54-25.26,613.59-32.84,431.31-24,449.28-22.73,313.21-24,335-16.42"/><path class="cls-1" d="M-13.29,2438.58s319.63-17.68,346.59-20.21,223.35-20.21,242.61-16.42,383.81-20.21,405.63-20.21,390.24-13.89,400.51-18.94"/><path class="cls-1" d="M-15.73,1740.31s310.78,55.81,335.64,57.34,609.9,45.1,725.67,42.81c0,0,307.67,6.88,338.75,16"/><path class="cls-1" d="M-14.62,1754.41s311.33,58.94,328.2,60.6,356,20.75,397.38,26.56,643.75,18.27,673.28,25.74"/><path class="cls-1" d="M-15.22,1701.15s281.4,54.56,408.86,60.26c0,0,256.57,17.92,304.57,18.73s671.22,14.66,686.12,18.73"/><path class="cls-1" d="M-15.22,1711.74s238.36,41.53,276.44,45.6,275.6,27.69,328.57,28.5,777.16,15.48,793.71,22"/><path class="cls-1" d="M-9.36,1667.23s377.42,62,471.07,66.75,903.37,17.28,924.83,26.88"/><path class="cls-1" d="M1385.57,1769.5c-12.69-4.8-824.35-20.16-926.78-25S-9.36,1679.23-9.36,1679.23"/><path class="cls-1" d="M1383.79,1709.68s-538.73-9.6-600.26-9.6-280.62-18.46-280.62-18.46-505.16-53.39-515.32-64.39"/><path class="cls-1" d="M1382.28,1714.85c-39.76,4.43-443.43-2.22-443.43-2.22-191.33,5.91-510.22-30.27-510.22-30.27s-438-48.13-440-52.13"/><path class="cls-1" d="M-11.39,1585.23s499-6,555.93,21,268.31,57,360.8,48,466.5-40,475.64-30"/><path class="cls-1" d="M-10.38,2493.23s505.12-69,644.36-44,309,44,435,10,285.59-43,313-8"/><path class="cls-1" d="M-19.68,2750.18S519.83,2709,691.59,2731c215.74,27.63,293.31,25,322.71,27.29s330.55,4.63,348.2,9.26"/><path class="cls-1" d="M-27,2805H643.55c37.64,0,551.1-15.05,714,17.36"/><path class="cls-1" d="M-27.54,2822.36s634,5.79,654,6.95,251.73,12.73,297.61,8.1,391.71-12.73,431.71-1.16"/><path class="cls-1" d="M-29.9,2838.57s749.32,10.41,776.38,9.25,61.16-6.94,128.21-1.15,469.36-1.16,483.47,5.78"/><path class="cls-1" d="M-28.56,2874.07s468.18,1.15,487,4.63,302.31-2.32,344.66,0,187-3.48,283.49-2.32,243.5,5.79,270.56,5.79"/><path class="cls-1" d="M-25.61,2949.75s190.2,0,215.3,2.6,261.53,13,309.08,9.1,262.86-11.7,327.58-10.4,281.34-6.5,334.18-5.2,128.12,18.19,196.81,10.4"/><path class="cls-1" d="M-29.09,2969.54s89-1.54,120.2,3.07,96.79,8.45,115.52,8.45,128.79-3.07,165.47-4.61,236.51,6.14,255.24,4.61,187.33-6.91,220.89-6.15,94.45-2.3,94.45-2.3,314.55-7.68,413.68,6.91"/><path class="cls-1" d="M-29.06,3027.76s306.06-4.7,387.35,2.35,437.57,5.88,489-1.17,425.61-24.71,504.52-8.24"/><path class="cls-1" d="M-27.86,3037.17s431.58,4.71,468.64,12.94,393.33-2.35,455.5-8.23,373-22.35,460.28-9.41"/><path class="cls-1" d="M-25.47,3070.11s338.33-5.88,399.3,0,100.43,10.58,173.36,7.06,252.25,10.58,282.14,5.88,449.52-37.64,526-18.82"/><path class="cls-1" d="M-26.78,3138.76s36.78-12.4,128.19-25.84,222.74-22.75,292.09-19.64,308.89,37.21,345.67,37.21,283.68-49.62,343.57-45.48,223.79-10.34,275.28,2.06"/><path class="cls-1" d="M-27.83,3229.74s234.31,13.44,334.12-1,338.32-35.15,386.65-39.28,126.08-5.17,189.12,8.27,112.42,24.81,154.45,21.71,100.86,20.67,133.44,27.91,157.6,14.47,186,14.47"/><path class="cls-1" d="M-24.67,3149.1s136.58,45.49,258.46,45.49,318.36-11.37,361.44-43.42c0,0-68.2-34.18-86-32.93s-88.83-12.48-117.39-8.74-168.14,9.37-179.56,33.09"/><path class="cls-1" d="M1354.91,3226s-374.47-7.26-428-72c0,0,97.77-50.21,180.78-50.21s213.37-13.92,251.5-4.84"/><path class="cls-1" d="M1356.76,3213.89s-225.06,8.47-252.73-29.64,110.07-53.25,126.06-53.85,54.11-6.05,67-5.45,30.13,7.87,41.81,7.87a197.53,197.53,0,0,0,21.53-1.21"/><path class="cls-1" d="M-26,3256s265.78-16.4,317.75,4.83,88.27,20.26,120.63,1.93l32.37-18.34s106.89-10.61,149.06-17.37,193.21-12.54,257,7.72c0,0,64.22,7.42,75.43,11.26s74.58,9.11,83.36,9.11,100.42,7.19,129.18,13.43,77,2.88,107.24,8.63,91.16,5.76,109.68,11"/><path class="cls-1" d="M-25.15,3273.57s290.7-16.34,318.39-2.72,41.12,41.36,119,8.3c0,0,20.16-18.73,45.35-15.42s224.52-9.37,258.11-6.61,210,18.73,243,24.79,356.88,44.29,398.44,39.48"/><path class="cls-1" d="M-27.37,3298.94s310.47-18.44,327.58-13.63,31.78,34.47,100.23,11.22c0,0,18.74-1.6,52.15,4.81s145.86-2.4,184.16-3.2,264.83,8,335.73,20,246.9,25.66,284.38,25.66,102.68,2.4,102.68,2.4"/><path class="cls-1" d="M-25.12,3327.09s116.57-5.68,125.22-4.54,112-16.47,128.68-12.49,72.13-13.06,80.21-8.52,30.59,19.87,91.75,8.52c0,0-1.15-5.11,26.55,6.24s118.29,18.74,142.53,19.88,147.15-17,226.78-2.84,238.71,14.24,319.83,30.78,241.19,12.23,241.19,12.23"/><path class="cls-1" d="M-30,3342.63s172.57-8.85,203.12-5.31,95.27-9.73,118.64-8,103.36,2.66,162.68,15.92,175.26,0,222.9,4.42,92.57-7.07,164.47,4.42,258,12.38,329,25.65,187.85,8.84,187.85,8.84"/><path class="cls-1" d="M-28.2,3366.5s294.8-17.68,344.23-14.15,152.79,18.58,188.74,19.46,178.86-8.84,233.68-.88,193.24,0,298.4,15,310.08,13.26,322.66,16.8"/><path class="cls-1" d="M-23.85,3414.34s193.83-14.51,221.21-4.15,33.71,19.69,69.53,20.73,163.28-8.29,223.32-4.15,362.37-6.22,445.59,3.11,383.43,22.81,420.3,21.77"/><path class="cls-1" d="M-28.49,3449.18s169,0,350.07,13.58,331.1-10.18,401.8-3.4,222.46,5.09,343.18,10.18,250-17,291.43,10.19"/><path class="cls-1" d="M-26.76,3508.57s134.51,18.66,206.93,17,258.68-8.49,343.18-6.79,134.5,11.88,238,3.39,310.41,1.7,384.56,8.49,179.35,5.09,213.84,1.7"/><path class="cls-1" d="M-28.09,3547.68s110.45,1.74,190,10.43,192.62,13,235.92,9.57,214.71-10.44,256.24-10.44,327.82,22.61,380,16.52,323.4-1.74,323.4-1.74"/><path class="cls-1" d="M-28.09,2904.32s558.44,46.95,669.77,25.22,349-20.87,369.35-11.31,325.16,19.13,347.25,18.26"/><path class="cls-1" d="M-26.45,2585.5s734.81,2,686,63-687,73-687,73"/><path class="cls-1" d="M1367.45,2551s-605.73,76-629.11,108,628.1,30,628.1,30"/><path class="cls-1" d="M-27,2567s689.08-9,699.24,75S-29,2728-29,2728"/><path class="cls-1" d="M1369.48,2556S844.24,2626.08,824,2655.58s544.63,27.67,544.63,27.67"/><path class="cls-1" d="M-8,3872.64s20-8.37,31.05-7.28c8.7.86,34.26-2.09,49.13-5.34a52.93,52.93,0,0,0,9.26-2.66c8.34-3.76,28.78-15.57,55.48-13.62a13.42,13.42,0,0,1,4.27,1.49c.73.32,6.3-1,30.79-10.05,39.17-14.54,275.32-36.36,274.58-27.63-.7,8.25-35.39,14.87-39.21,15.57l-.65.1-239.26,25.35a8.38,8.38,0,0,1-1.23,0c-4.06-.16-28.25-.8-44.12,5.85-17.37,7.27-38.07,6.9-38.07,6.9s-37.32,1.1-56.17,14.55-36.59,10.91-36.59,10.91"/><path class="cls-1" d="M-8,3829.09s75.34-.53,90.95-4.24,444.86-79,536.94-43.87a7.11,7.11,0,0,0,.89.29c5.17,1.31,52.94,15.31-134.8,42-197.47,28.07-341.73,34.54-369.15,49.12-25.71,13.66-72.16,13.09-77.86,13a9.49,9.49,0,0,0-1.19.06c-5.27.62-43.24,5.33-46.16,12.51"/><path class="cls-1" d="M-8.52,3805.28S639,3734.49,740,3763.52a8.27,8.27,0,0,1,2.39,14.86c-16.28,10.95-61.85,29.72-189.16,45.77,0,0-155.82,24.37-192.58,27.52s-214.95,25.16-230.93,31.44S59.4,3902,46.62,3902s-56.74,15.73-56.74,15.73"/><path class="cls-1" d="M-8.51,3752s742.52-75.4,945.76-19a8.33,8.33,0,0,1,3.56,2c5.14,5,15.31,21.37-45.53,40.3-73.12,22.76-528.08,102.22-547.48,105.16s-288,33.77-357.43,108.66"/><path class="cls-1" d="M-9,3709s790.73-54.77,824.89-54.77,168.27-3.74,220.14,6.22c17.2,3.3,33.57,3.9,48.46,3.7,13-.18,15.58,18.06,3,21.34-15.77,4.11-31.52,8.18-43.35,11.17-25.84,6.52-43,43.31-50.53,63a38.17,38.17,0,0,1-17.68,20.06c-28.11,15.09-97.77,48.35-183.06,59-111.61,14-354.44,61.23-379.46,67.22S174,3937.91,180.05,4027.76s91.44,96.59,103.5,116.47c4.5,7.43,4.73,49.92-58.18,62.56S3.24,4209.28-7.76,4212"/><path class="cls-1" d="M-15.78,4276.72C40.13,4267,510,4245.9,624,4238.51c16.78-1.09,38.83-6,57.23-7,28.76-1.57,207.09-.31,205.42-14.08-4.2-34.53-197.32-43.28-219.31-48.62-36.41-8.85-349.68-30.44-414.36-131S500.46,3904,522,3897.58s333.74-60.88,333.74-60.88,157.49-23.06,171.55-79.32,84.38-64.57,155.62-74.72,94.47-39.95,94.47-39.95,77.86-30.71,98.18-24.71"/><path class="cls-1" d="M1377,3664.66s-273.15,52.64-297.73,69.64c-25.8,17.84-62.6,80.77-134.06,92.49S345.69,3920.55,306,3987s119.12,100.6,139,105.49,433.78,52.74,460.58,60.55,284.89,34.18,306.72,43,161.8,12.7,161.8,12.7"/><path class="cls-1" d="M1376.17,3706.57s-229.18-6.26-227.38,35.77-55,67.49-69.49,73.41S717.45,3890.62,703,3895.14s-288.81,44.5-292.09,93.57,315.71,57.5,315.71,57.5,290,23.89,317.58,22.6,305.77,4.52,334-9"/><path class="cls-1" d="M1377.92,3719.46s-166.85-.54-193.54,28.48a8.18,8.18,0,0,0-1.31,9.28c5.14,10.09,16.77,38.93-10.66,51.43-33.53,15.27-188.12,44-190,44S582,3908.06,553.34,3957.51a8.26,8.26,0,0,0-1,5.62c1.68,9.21,15.78,37.52,123.39,53.22,129.76,18.94,409.77,18.33,452,18.33s250.21-10.39,250.21-10.39"/><path class="cls-1" d="M1376.5,3728.18s-187.76,0-138,48.92-108.35,65-108.35,65-382.94,58.41-410.4,65-126.9,28.47-123.19,48.19,34.88,29.21,54.91,35.78,158.08,32.13,227.1,35.78S1378,4014.42,1378,4014.42"/><path class="cls-1" d="M868.05,3933.15a10.34,10.34,0,0,0-1.47,19.7c14.82,6,32.85,12.66,40.21,12.93,13.45.51,36.21-1,50.18.51s65.18,1.53,78.63-6.1,36.73-22.4,10.86-26.47-86.91-10.18-121.05-8.15C905.56,3926.76,884.13,3929.32,868.05,3933.15Z"/><path class="cls-1" d="M844,3987.2a171.16,171.16,0,0,0,32.18.76,127.69,127.69,0,0,1,21.51.27c17.33,1.75,50.36,4.62,72,3.63,30.42-1.39,90.57-4.87,104-2.09s88.45-4.87,91.28-7.66c2.59-2.55,29.58-15.64,28.59-33.36a8.24,8.24,0,0,0-4.38-6.76c-10.48-5.64-42.54-22.55-56.06-26-16.16-4.15-59.56-28.22-101.05-19.67a8.74,8.74,0,0,1-1.69.18c-9.38,0-93.74.19-101.75,3.48-8.5,3.48-124.54,22.28-142.94,23.67s-92.7,16.71-58.73,36.9c31.31,18.61,87.28,27.76,106.92,26.35A51.9,51.9,0,0,1,844,3987.2Z"/><path class="cls-1" d="M952.88,3889.82s136.57-12.53,179-4.17,78.54,8.35,102.6,26.45,7.08,25.07,31.84,39.69-2.12,36.9-13.44,39.69-213,12.53-239.17,10.44-153.55-.7-172-3.48S734.23,3988,724.32,3983.12s-53.77-12.53-57.31-22.28,1.41-25.06,25.47-28.55,133-22.27,148.6-27.15S930.24,3891.91,952.88,3889.82Z"/><path class="cls-1" d="M-12.37,4359.33s196.84-27.26,247.88-45.91c0,0,258.05-5.12,265.48-9.3,0,0,293.12-10.39,364,6"/><path class="cls-1" d="M-12.26,4413.68s184.52-28.17,254.5-63.65c0,0,29.69-16.69,66.81-17.73s443.11,1.62,480.82-29.62"/><path class="cls-1" d="M-8.75,4456.84s323.25-91.12,333.14-90.24,363.26-.88,409.12-21.23,171.74-42.47,171.74-42.47,64.15-8,112.49-1.66c0,0,305.86,24.46,357.73,7.44"/><path class="cls-1" d="M-15.47,4478.83s638.73-93.58,671.15-107.41,249.66-56.36,282.08-56.36,419.34,38.28,439.88,37.22"/><path class="cls-1" d="M193.11,4448s297.22,9.57,392.32-18.08,268.33-86.08,363.39-85.55,87.32,13.32,163.95,13.32,265.85,13.11,265.85,13.11"/><path class="cls-1" d="M330.3,4558.28c84-34.28,260.07-103.29,369.3-126.15a97.74,97.74,0,0,0,21.33-7.11c26.7-12.48,101.29-45.2,170.8-56.08,86.58-13.55,231.21,6.78,231.21,6.78s224.81,25.16,252.36,86.15c0,0,44,84.2,1.84,122.85s-296.43,122-324.87,124-91.21,7.72-105.92,4.83-250.19-1.45-265.79-6.76c-8.86-3-240.53-94.91-348.34-121.94A14,14,0,0,1,330.3,4558.28Z"/><path class="cls-1" d="M509.16,4591.57a24.3,24.3,0,0,1,.66-42.33c83.88-46.44,296.71-157.14,408.58-150.43,134.46,8.07,318.83,8.46,366.88,60.31a112.73,112.73,0,0,0,17.91,15.66c30.47,21.39,98,86.88-89.19,156.37,0,0-135.18,54.23-193.07,61.88s-164.32.57-175.68,3.36-100.12,14.67-145.56-2.79C666.75,4680.94,563.67,4623.88,509.16,4591.57Z"/><path class="cls-1" d="M644,4600.42s-43.45-41.74,10.35-72.29,152.11-92.64,174.87-95.7,132.53-22,214.37-5.66,140.67,9.44,174.56,42.78,41.56,103.18-28.77,127.72-92.72,51.58-190.55,66.68-260.24,10.07-279.42,1.26S644,4600.42,644,4600.42Z"/><path class="cls-1" d="M755.5,4615.36s-80.56-34.56-11.7-88.76,126.7-67.08,151.5-67.08,194.88,2.71,238.26,33.88,15.84,65.72-24.79,80.63S860.86,4656,755.5,4615.36Z"/><path class="cls-1" d="M-10.66,4557.39s288.42,90.46,400.52,95.42,262,57,294.72,78.07,98.25-1.24,118.4-1.24,141.06-1.24,178.85,5,380.37-84.27,393-92.94,6.64-2.36,6.64-2.36"/><path class="cls-1" d="M-10,4702.84s191,19.58,329,57.43c0,0,86.23,3.91,197.65,33.93s191,33.94,241.43,20.89,159.18-1.31,188.36-9.14,412.55-62.65,432.45-52.21"/><path class="cls-1" d="M-12.65,4730.25s191,40.46,265.3,40.46,99.49,0,139.28,10.44,103.47,22.19,139.29,22.19c0,0,21.09.42,26.69,1.7"/><path class="cls-1" d="M-9.22,4772.36s357.38,20.07,424.16,41.5,216.33,42.85,251.17,41.42,225,11.43,304.89-7.14,319.41-77.14,406.52-64.28"/><path class="cls-1" d="M-10.43,4866.86s390.13,2.85,436.37,22.75S582,4920.89,604.15,4918s208.05-24.15,247-15.31c27.38,20.34,460.54-79.47,526-56.72"/><path class="cls-1" d="M-9.62,4921.22s322-4.31,446.89,24.78,294.64-4.31,351.6-1.07,501.66-69,587.09-47.42"/><path class="cls-1" d="M-11.5,5004.35s62.23-32.65,204.65-21.76,246.13,28.57,329.09,19,272.41-36.73,372-40.81,419-29.94,482.58-12.25"/><path class="cls-1" d="M-10.71,5049.67s162.41-28.2,278.42-9.4,275.68-6.72,346.65-6.72,275.68-44.31,412.16-36.25,318-16.12,350.75-9.4"/><path class="cls-1" d="M-13.44,5118.15s372.59-51,578.67-21.48,356.2,33.57,386.23,33.57,401.24-81.92,428.54-68.49"/><path class="cls-1" d="M-10.71,5150.38s399.88-44.31,603.23,6.71,776.56-45.65,786.11-41.62"/><path class="cls-1" d="M-3.88,5620.11s195,75.46,191.71,87.31S-3.88,5792.58-3.88,5792.58"/><path class="cls-1" d="M-3.37,5471.77s428.23,106.48,623,103.43,718.87,45.64,723.51,108-211.8,111-211.8,111S30.64,5887-3.37,5887"/><path class="cls-1" d="M-6.47,5482.42s409.39,87.81,473.77,87.81,630.91,48.8,682.4,112.4S870.34,5791.5,870.34,5791.5L-3.88,5865.88"/><path class="cls-1" d="M-3.88,5819.53s273.88-69,294.69-101.33S-6.07,5592.09-6.07,5592.09"/><path class="cls-1" d="M-6.4,5946.84s604.6-58,677.54-51.07,262.32-22.08,284.77-24.84,423.64-41.41,439.07-59.35"/><path class="cls-1" d="M-9.21,5967.54s540.07-52.45,585-48.31,478.35-38.64,499.4-40,291.78-29,322.64-48.31"/><path class="cls-1" d="M-6.4,5991s340.87-29,378.75-24.85,239.88-20.7,256.71-20.7,484-17.94,538.67-23.46,223-27.61,225.85-31.75"/><path class="cls-1" d="M-6.4,6006.19s238.47-15.18,262.32-22.08,196.39-11,196.39-11,290.38-20.7,304.4-19.32,441.88-20.7,465.73-26.22,171.14-19.33,171.14-19.33"/><path class="cls-1" d="M-4.5,6034s210.5-7.56,235.09-13.61,216.64-13.6,241.22-15.11,536.24-30.24,577.73-25.7,348.78-28.73,348.78-28.73"/><path class="cls-1" d="M-6,6047.64s224.32-10.59,250.44-13.61,199.75-21.17,235.09-16.63,633-30.24,633-30.24l282.72-19.65"/><path class="cls-1" d="M-3.13,6076s554.54-25.26,613.59-32.84,431.31-24,449.28-22.73,313.21-24,335-16.42"/><path class="cls-1" d="M-3.13,6088.58s319.63-17.68,346.59-20.21,223.36-20.21,242.61-16.42,383.82-20.21,405.64-20.21,390.23-13.89,400.5-18.94"/><path class="cls-1" d="M-5.57,5390.31s310.78,55.81,335.64,57.34,609.91,45.1,725.67,42.81c0,0,307.67,6.88,338.75,16.05"/><path class="cls-1" d="M-4.46,5404.41s311.33,58.94,328.2,60.6,356,20.75,397.39,26.56,643.74,18.27,673.27,25.74"/><path class="cls-1" d="M-5,5351.15s281.39,54.56,408.85,60.26c0,0,256.57,17.92,304.57,18.73s671.22,14.66,686.12,18.73"/><path class="cls-1" d="M-5,5361.74s238.36,41.53,276.43,45.6S547,5435,600,5435.84s777.16,15.48,793.71,22"/><path class="cls-1" d="M.8,5317.23s377.42,62,471.08,66.75,903.36,17.28,924.82,26.88"/><path class="cls-1" d="M1395.73,5419.5c-12.68-4.8-824.35-20.16-926.78-25S.8,5329.23.8,5329.23"/><path class="cls-1" d="M1394,5359.68s-538.73-9.6-600.25-9.6-280.62-18.46-280.62-18.46S7.92,5278.23-2.25,5267.23"/><path class="cls-1" d="M1392.45,5364.85c-39.77,4.43-443.44-2.22-443.44-2.22-191.33,5.91-510.21-30.27-510.21-30.27s-438-48.13-440-52.13"/><path class="cls-1" d="M-1.23,5235.23s499-6,555.93,21,268.32,57,360.8,48,466.5-40,475.65-30"/><path class="cls-1" d="M-.21,6143.23s505.11-69,644.35-44,309,44,435,10,285.59-43,313-8"/><path class="cls-1" d="M-9.52,6400.18S530,6359,701.75,6381c215.74,27.63,293.31,25,322.72,27.29s330.54,4.63,348.19,9.26"/><path class="cls-1" d="M-16.79,6455h670.5c37.64,0,551.11-15.05,714,17.36"/><path class="cls-1" d="M-17.38,6472.36s634,5.79,654,7,251.74,12.73,297.61,8.1,391.72-12.73,431.71-1.16"/><path class="cls-1" d="M-19.73,6488.57s749.31,10.41,776.37,9.25,61.17-6.94,128.22-1.15,469.35-1.16,483.47,5.78"/><path class="cls-1" d="M-18.4,6524.07s468.18,1.15,487,4.63,302.31-2.32,344.66,0,187-3.48,283.5-2.32,243.49,5.79,270.55,5.79"/><path class="cls-1" d="M-15.45,6599.75s190.21,0,215.3,2.6,261.54,13,309.09,9.1,262.85-11.7,327.57-10.4,281.35-6.5,334.18-5.2,128.12,18.19,196.81,10.4"/><path class="cls-1" d="M-18.93,6619.54s89-1.54,120.2,3.07,96.79,8.45,115.52,8.45,128.79-3.07,165.48-4.61,236.5,6.14,255.23,4.61,187.33-6.91,220.9-6.15,94.44-2.3,94.44-2.3,314.56-7.68,413.69,6.91"/><path class="cls-1" d="M-18.9,6677.76s306.06-4.7,387.36,2.35,437.56,5.88,489-1.17,425.61-24.71,504.51-8.24"/><path class="cls-1" d="M-17.7,6687.17s431.59,4.71,468.65,12.94,393.33-2.35,455.49-8.23,373-22.35,460.28-9.41"/><path class="cls-1" d="M-15.31,6720.11s338.34-5.88,399.31,0,100.42,10.58,173.35,7.06,252.26,10.58,282.14,5.88,449.52-37.64,526-18.82"/><path class="cls-1" d="M-16.61,6788.76s36.77-12.4,128.18-25.84,222.74-22.75,292.09-19.64,308.9,37.21,345.67,37.21S1033,6730.87,1092.9,6735s223.8-10.34,275.28,2.06"/><path class="cls-1" d="M-17.66,6879.74s234.3,13.44,334.11-1,338.32-35.15,386.65-39.28,126.08-5.17,189.12,8.27,112.43,24.81,154.45,21.71,100.87,20.67,133.44,27.91,157.6,14.47,186,14.47"/><path class="cls-1" d="M-14.51,6799.1s136.59,45.49,258.47,45.49,318.35-11.37,361.43-43.42c0,0-68.19-34.18-86-32.93s-88.83-12.48-117.38-8.74-168.15,9.37-179.57,33.09"/><path class="cls-1" d="M1365.08,6876s-374.48-7.26-428-72c0,0,97.76-50.21,180.78-50.21s213.37-13.92,251.49-4.84"/><path class="cls-1" d="M1366.92,6863.89s-225.05,8.47-252.72-29.64,110.06-53.25,126-53.85,54.11-6,67-5.45,30.13,7.87,41.82,7.87a197.46,197.46,0,0,0,21.52-1.21"/><path class="cls-1" d="M-15.89,6906s265.78-16.4,317.76,4.83,88.26,20.26,120.63,1.93l32.36-18.34s106.9-10.61,149.07-17.37,193.2-12.54,257,7.72c0,0,64.21,7.42,75.42,11.26s74.59,9.11,83.36,9.11,100.42,7.19,129.18,13.43,77,2.88,107.25,8.63,91.15,5.76,109.68,11"/><path class="cls-1" d="M-15,6923.57s290.71-16.34,318.39-2.72,41.13,41.36,119,8.3c0,0,20.16-18.73,45.35-15.42s224.52-9.37,258.12-6.61,210,18.73,243,24.79,356.89,44.29,398.45,39.48"/><path class="cls-1" d="M-17.2,6948.94s310.46-18.44,327.57-13.63,31.78,34.47,100.23,11.22c0,0,18.74-1.6,52.15,4.81s145.86-2.4,184.16-3.2,264.84,8,335.73,20,246.9,25.66,284.39,25.66,102.67,2.4,102.67,2.4"/><path class="cls-1" d="M-15,6977.09s116.57-5.68,125.22-4.54,112-16.47,128.69-12.49,72.13-13.06,80.21-8.52,30.58,19.87,91.75,8.52c0,0-1.16-5.11,26.54,6.24S555.75,6985,580,6986.18s147.15-17,226.78-2.84,238.71,14.24,319.84,30.78,241.18,12.23,241.18,12.23"/><path class="cls-1" d="M-19.84,6992.63s172.57-8.85,203.13-5.31,95.27-9.73,118.64-8,103.35,2.66,162.67,15.92,175.27,0,222.9,4.42,92.57-7.07,164.48,4.42,257.94,12.38,329,25.65,187.84,8.84,187.84,8.84"/><path class="cls-1" d="M-18,7016.5s294.8-17.68,344.23-14.15,152.79,18.58,188.75,19.46,178.85-8.84,233.68-.88,193.23,0,298.39,15,310.08,13.26,322.66,16.8"/><path class="cls-1" d="M-13.69,7064.34s193.83-14.51,221.22-4.15,33.71,19.69,69.52,20.73,163.28-8.29,223.32-4.15,362.37-6.22,445.59,3.11,383.44,22.81,420.31,21.77"/><path class="cls-1" d="M-18.33,7099.18s169,0,350.07,13.58,331.1-10.18,401.81-3.4,222.46,5.09,343.17,10.18,250-17,291.44,10.19"/><path class="cls-1" d="M-16.6,7158.57s134.51,18.66,206.94,17,258.67-8.49,343.17-6.79,134.51,11.88,238,3.39,310.4,1.7,384.56,8.49,179.34,5.09,213.83,1.7"/><path class="cls-1" d="M-17.92,7197.68s110.45,1.74,190,10.43,192.63,13,235.92,9.57,214.72-10.44,256.25-10.44,327.81,22.61,379.94,16.52,323.4-1.74,323.4-1.74"/><path class="cls-1" d="M-17.92,6554.32s558.43,47,669.77,25.22,349-20.87,369.34-11.31,325.17,19.13,347.26,18.26"/><path class="cls-1" d="M-16.29,6235.5s734.81,2,686,63-687,73-687,73"/><path class="cls-1" d="M1377.62,6201s-605.74,76-629.11,108,628.09,30,628.09,30"/><path class="cls-1" d="M-16.79,6217s689.07-9,699.23,75-701.27,86-701.27,86"/><path class="cls-1" d="M1379.65,6206s-525.24,70.08-545.51,99.58,544.63,27.67,544.63,27.67"/><path class="cls-1" d="M6.8,7349s195-27,245.58-45.49c0,0,255.67-5.07,263-9.2,0,0,290.41-10.3,360.65,6"/><path class="cls-1" d="M6.91,7402.86S189.72,7375,259.06,7339.8c0,0,29.41-16.54,66.18-17.57s439,1.61,476.37-29.35"/><path class="cls-1" d="M10.39,7445.62s320.25-90.28,330.05-89.4,359.9-.88,405.33-21,170.15-42.07,170.15-42.07,63.55-7.92,111.44-1.65c0,0,303,24.23,354.42,7.37"/><path class="cls-1" d="M3.73,7467.4S636.54,7374.69,668.66,7361s247.34-55.84,279.47-55.84,415.45,37.93,435.79,36.88"/><path class="cls-1" d="M210.38,7436.85s294.46,9.48,388.68-17.91,265.84-85.29,360-84.76,86.51,13.2,162.43,13.2,263.39,13,263.39,13"/><path class="cls-1" d="M346.3,7546.11c83.24-34,257.65-102.32,365.87-125a96.82,96.82,0,0,0,21.13-7.05c26.46-12.36,100.35-44.78,169.22-55.56,85.78-13.43,229.06,6.71,229.06,6.71s222.73,24.94,250,85.36c0,0,43.62,83.42,1.83,121.71s-293.68,120.9-321.86,122.82-90.36,7.64-104.94,4.78-247.86-1.44-263.32-6.7c-8.77-3-238.3-94-345.11-120.8A13.83,13.83,0,0,1,346.3,7546.11Z"/><path class="cls-1" d="M523.5,7579.1a24.08,24.08,0,0,1,.65-41.94c83.1-46,294-155.68,404.8-149,133.2,8,315.86,8.38,363.47,59.75a111.67,111.67,0,0,0,17.75,15.51c30.18,21.19,97,86.08-88.37,154.92,0,0-133.93,53.72-191.27,61.3s-162.8.57-174.06,3.34-99.19,14.53-144.21-2.77C679.62,7667.64,577.5,7611.11,523.5,7579.1Z"/><path class="cls-1" d="M669.09,7587.86s-42.36-41.35,10.09-71.61,148.27-91.79,170.46-94.81,129.19-21.82,209-5.61,137.13,9.35,170.16,42.38,40.52,102.22-28,126.53-90.38,51.11-185.75,66.07-253.68,10-272.38,1.25S669.09,7587.86,669.09,7587.86Z"/><path class="cls-1" d="M777.75,7602.67s-78.54-34.24-11.42-87.94,123.52-66.46,147.69-66.46,190,2.69,232.26,33.57,15.44,65.11-24.17,79.88S880.45,7642.94,777.75,7602.67Z"/><path class="cls-1" d="M8.5,7545.23s285.75,89.63,396.8,94.54,259.55,56.48,292,77.35,97.33-1.23,117.29-1.23,139.76-1.23,177.19,4.91,376.84-83.49,389.32-92.08,6.58-2.34,6.58-2.34"/><path class="cls-1" d="M9.15,7689.34s189.25,19.39,325.93,56.89c0,0,85.42,3.88,195.81,33.62s189.25,33.62,239.19,20.69,157.7-1.29,186.62-9.05,408.72-62.07,428.43-51.72"/><path class="cls-1" d="M6.52,7716.49s189.25,40.09,262.84,40.09,98.57,0,138,10.34,102.51,22,138,22c0,0,20.9.42,26.44,1.69"/><path class="cls-1" d="M9.93,7758.21s354.06,19.88,420.22,41.11,214.32,42.46,248.84,41,223,11.33,302.07-7.07,316.44-76.43,402.75-63.69"/><path class="cls-1" d="M8.73,7851.84s386.51,2.81,432.32,22.53,154.61,31,176.56,28.17,206.11-23.93,244.69-15.17c27.13,20.16,456.28-78.73,521.17-56.19"/><path class="cls-1" d="M9.53,7905.69s319-4.27,442.75,24.56,291.91-4.28,348.33-1.07,497-68.34,581.65-47"/><path class="cls-1" d="M7.67,7988.05s61.64-32.35,202.75-21.56,243.85,28.3,326,18.87S806.34,7949,905,7944.92s415.09-29.65,478.11-12.13"/><path class="cls-1" d="M6.45,8008.34s79.14-43.55,339.36-17.16c0,0,229.36,19.8,473.48-17.16s503-42.23,563.36-19.79"/><path class="cls-1" d="M8.45,8033s160.9-27.94,275.83-9.32S557.41,8017,627.72,8017s273.13-43.9,408.34-35.92,315-16,347.49-9.31"/><path class="cls-1" d="M5.75,8100.8s369.13-50.56,573.3-21.29,352.9,33.26,382.64,33.26,397.53-81.15,424.57-67.85"/><path class="cls-1" d="M8.45,8132.73s396.17-43.91,597.64,6.65,769.35-45.24,778.82-41.24"/><path class="cls-1" d="M10.14,8189.67s319-4.27,442.75,24.55,291.9-4.27,348.33-1.06,497-68.34,581.65-47"/><path class="cls-1" d="M8.28,8272s61.64-32.35,202.75-21.56,243.84,28.3,326,18.87,269.88-36.4,368.51-40.44,415.09-29.65,478.11-12.13"/><path class="cls-1" d="M7.06,8292.32s79.14-43.55,339.36-17.16c0,0,229.36,19.8,473.48-17.16s503-42.23,563.36-19.79"/><path class="cls-1" d="M9.06,8316.93S170,8289,284.89,8307.61,558,8301,628.33,8301s273.13-43.9,408.34-35.92,315-16,347.49-9.31"/><path class="cls-1" d="M6.36,8384.78s369.13-50.56,573.29-21.29,352.91,33.26,382.65,33.26,397.53-81.15,424.57-67.85"/><path class="cls-1" d="M9.06,8416.71s396.17-43.91,597.64,6.65,769.35-45.24,778.82-41.24"/></g></svg>